<svg xmlns="http://www.w3.org/2000/svg" viewBox="0 0 512 469.57">
  <g id="Слой_2" data-name="Слой 2">
    <g id="Capa_1" data-name="Capa 1">
      <g>
        <path d="M479.67,369.14v-97a7.5,7.5,0,0,0-7.5-7.5H39.82a7.5,7.5,0,0,0-7.5,7.5v97a7.5,7.5,0,0,0,7.5,7.5H472.17A7.5,7.5,0,0,0,479.67,369.14Zm-15-7.5H47.32v-82H464.67Z"/>
        <path d="M82.25,35.35a7.5,7.5,0,0,0,0,15h347.5a7.5,7.5,0,0,0,0-15Z"/>
        <path d="M494.4,232.34h-8.67V94.46a7.5,7.5,0,0,0-15,0v90.46a27.52,27.52,0,0,0-12.7-3.09H437.25v-69l8.4-4.9a7.5,7.5,0,1,0-7.56-13l-9,5.25c-9.14-3.32-34.84-11.33-70-11.33s-60.91,8-70.05,11.33L280,95a7.5,7.5,0,1,0-7.56,13l8.4,4.9v69H231.18v-69l8.4-4.9A7.5,7.5,0,1,0,232,95l-9,5.25c-9.14-3.32-34.85-11.33-70-11.33s-60.9,8-70,11.33l-9-5.25a7.5,7.5,0,1,0-7.56,13l8.4,4.9v69H54a27.59,27.59,0,0,0-12.71,3.09V27.7A12.72,12.72,0,0,1,54,15H458a12.72,12.72,0,0,1,12.71,12.7V59.43a7.5,7.5,0,1,0,15,0V27.7A27.74,27.74,0,0,0,458,0H54A27.74,27.74,0,0,0,26.26,27.7V232.34H17.6A17.62,17.62,0,0,0,0,249.94V391.36A17.62,17.62,0,0,0,17.6,409H32.33v45.61H17.6a7.5,7.5,0,0,0,0,15h84.86a7.5,7.5,0,0,0,0-15H87.73V409H343.14a7.5,7.5,0,0,0,0-15H17.6a2.6,2.6,0,0,1-2.6-2.6V249.94a2.6,2.6,0,0,1,2.6-2.6H75.93a7.5,7.5,0,0,0,0-15H41.26V209.53A12.72,12.72,0,0,1,54,196.83H458a12.72,12.72,0,0,1,12.71,12.7v22.81H110.94a7.5,7.5,0,1,0,0,15H494.4a2.6,2.6,0,0,1,2.6,2.6V391.36a2.6,2.6,0,0,1-2.6,2.6H378.18a7.5,7.5,0,0,0,0,15h46.09v45.61H409.54a7.5,7.5,0,0,0,0,15H494.4a7.5,7.5,0,0,0,0-15H479.67V409H494.4a17.62,17.62,0,0,0,17.6-17.6V249.94a17.62,17.62,0,0,0-17.6-17.6ZM72.73,454.57H47.32V409H72.73Zm17-272.74v-68.1c9.38-3.2,32.54-9.84,63.21-9.84s53.85,6.65,63.21,9.84v68.1Zm206.07,0v-68.1c9.38-3.2,32.55-9.84,63.22-9.84a201.23,201.23,0,0,1,63.21,9.84v68.1ZM464.67,454.57h-25.4V409h25.4Z"/>
        <circle cx="400.39" cy="130.77" r="7.07" transform="translate(24.81 321.42) rotate(-45)"/>
        <circle cx="317.58" cy="130.62" r="7.07" transform="translate(-21.53 76.56) rotate(-13.3)"/>
        <circle cx="359.04" cy="130.74" r="7.07"/>
        <circle cx="400.4" cy="159.89" r="7.07" transform="translate(-26.04 96.4) rotate(-13.3)"/>
        <circle cx="317.57" cy="160.05" r="7.07" transform="translate(-20.16 271.43) rotate(-45)"/>
        <circle cx="359.04" cy="160.03" r="7.07"/>
        <circle cx="111.52" cy="130.74" r="7.07"/>
        <circle cx="194.37" cy="130.65" r="7.07"/>
        <circle cx="152.93" cy="130.74" r="7.07"/>
        <circle cx="111.56" cy="159.96" r="7.07"/>
        <circle cx="194.34" cy="160.04" r="7.07"/>
        <circle cx="152.97" cy="159.95" r="7.07"/>
      </g>
    </g>
  </g>
</svg>
