<svg xmlns="http://www.w3.org/2000/svg" viewBox="0 0 483.71 512">
  <g id="Слой_2" data-name="Слой 2">
    <g id="Capa_1" data-name="Capa 1">
      <g>
        <path d="M466.11,90.92h-22.8V27.7A27.74,27.74,0,0,0,415.61,0H68.11a27.73,27.73,0,0,0-27.7,27.7V90.91H17.6A17.63,17.63,0,0,0,0,108.52v101a17.62,17.62,0,0,0,17.6,17.6H40.41V381.84H33.76a7.5,7.5,0,0,0-7.5,7.5v34.35a7.5,7.5,0,0,0,7.5,7.5H39.9V484.3A27.74,27.74,0,0,0,67.6,512h60.61a27.74,27.74,0,0,0,27.71-27.7V431.19H327.8V484.3A27.74,27.74,0,0,0,355.5,512h60.61a27.74,27.74,0,0,0,27.7-27.7V431.19H450a7.5,7.5,0,0,0,7.5-7.5V389.34a7.5,7.5,0,0,0-7.5-7.5h-6.64V227.13h22.8a17.61,17.61,0,0,0,17.6-17.6v-101a17.62,17.62,0,0,0-17.6-17.61Zm-37.8,250.51H382.7V320.65A12.72,12.72,0,0,1,395.4,308h32.91ZM55.41,308h32.9A12.72,12.72,0,0,1,101,320.65v20.78H55.41ZM17.6,212.13a2.6,2.6,0,0,1-2.6-2.6v-101a2.61,2.61,0,0,1,2.6-2.61H40.41V212.13ZM140.92,484.3A12.72,12.72,0,0,1,128.21,497H67.6a12.72,12.72,0,0,1-12.7-12.7V431.19h86Zm287.89,0a12.71,12.71,0,0,1-12.7,12.7H355.5a12.72,12.72,0,0,1-12.7-12.7V431.19h43a7.5,7.5,0,0,0,0-15H41.26V396.84H442.45v19.35H420.84a7.5,7.5,0,0,0,0,15h8V484.3ZM335.37,381.84h-187v-39a2.61,2.61,0,0,1,2.6-2.6H332.77a2.6,2.6,0,0,1,2.6,2.6Zm15,0v-39a17.62,17.62,0,0,0-17.6-17.6H150.94a17.63,17.63,0,0,0-17.6,17.6v39H55.41V356.43h53.11a7.5,7.5,0,0,0,7.5-7.5V320.65A27.74,27.74,0,0,0,88.31,293H55.41V263.5h81.27a7.5,7.5,0,0,0,0-15H114.5V221.05l88.75-28.62a7.5,7.5,0,0,0-4.61-14.28L104.7,208.46h-.07l-18.18,6.06a7.5,7.5,0,0,0,2.37,14.62,7.59,7.59,0,0,0,2.37-.39L99.5,226v22.5H55.41v-187h179V78.79h-43a7.5,7.5,0,0,0-7.5,7.5v32.33a7.5,7.5,0,0,0,7.5,7.5h101a7.5,7.5,0,0,0,7.5-7.5V86.29a7.5,7.5,0,0,0-7.5-7.5h-43V61.47h89.42a7.5,7.5,0,0,0,0-15H55.41V27.7A12.71,12.71,0,0,1,68.11,15h347.5a12.72,12.72,0,0,1,12.7,12.7V46.47H373.79a7.5,7.5,0,0,0,0,15h54.52v187h-44.1V226l8.32,2.77a7.5,7.5,0,0,0,4.74-14.23l-18.18-6.06H379l-93.95-30.31a7.5,7.5,0,1,0-4.6,14.28l88.74,28.62V248.5H171.68a7.5,7.5,0,0,0,0,15H428.31V293H395.4a27.74,27.74,0,0,0-27.7,27.7v28.28a7.5,7.5,0,0,0,7.5,7.5h53.11v25.41Zm-65.5-288v17.33h-86V93.79ZM468.71,209.53a2.59,2.59,0,0,1-2.6,2.6h-22.8V105.91h22.8a2.6,2.6,0,0,1,2.6,2.61Z"/>
        <path d="M312.57,293H171.15a7.5,7.5,0,0,0,0,15H312.57a7.5,7.5,0,0,0,0-15Z"/>
      </g>
    </g>
  </g>
</svg>
