<svg xmlns="http://www.w3.org/2000/svg" viewBox="0 0 28 24">
  <g id="Слой_2" data-name="Слой 2">
    <g id="Слой_1-2" data-name="Слой 1">
      <path d="M25,4H20.78L20,.76A1,1,0,0,0,19,0H9A1,1,0,0,0,8,.76L7.22,4H3A3,3,0,0,0,0,7V21a3,3,0,0,0,3,3H25a3,3,0,0,0,3-3V7A3,3,0,0,0,25,4Zm1,17a1,1,0,0,1-1,1H3a1,1,0,0,1-1-1V7A1,1,0,0,1,3,6H8a1,1,0,0,0,1-.76L9.78,2h8.44L19,5.24A1,1,0,0,0,20,6h5a1,1,0,0,1,1,1Z"/>
      <path d="M14,9a5,5,0,1,0,5,5A5,5,0,0,0,14,9Zm0,8a3,3,0,1,1,3-3A3,3,0,0,1,14,17Z"/>
    </g>
  </g>
</svg>
