<svg xmlns="http://www.w3.org/2000/svg" viewBox="0 0 60 54.56">
  <g id="Слой_2" data-name="Слой 2">
    <g id="Слой_1-2" data-name="Слой 1">
      <path d="M59.7,54.26a1,1,0,0,1-1.15.19L47.16,48.76a19.93,19.93,0,0,1-27.31-7c-.31-.52-.6-1.06-.86-1.61a19.69,19.69,0,0,1-6.13-2.38L1.44,43.44A1,1,0,0,1,.1,43a1.06,1.06,0,0,1,0-.89L5.78,30.72A20,20,0,1,1,41,12,20,20,0,0,1,54.2,41.72l5.69,11.39A1,1,0,0,1,59.7,54.26ZM3.22,40.32l9.19-4.59h.12l.19,0h.37l.19.07h.11a18,18,0,1,0-5.63-5.63.2.2,0,0,1,0,.11.73.73,0,0,1,.07.19,1.15,1.15,0,0,1,0,.37.65.65,0,0,1,0,.2.2.2,0,0,1,0,.11Zm53.53,11-4.59-9.19V42a1.17,1.17,0,0,1,0-.2,1,1,0,0,1,.09-.57v-.11A18,18,0,0,0,42,14.26,20,20,0,0,1,23,40.55a12.32,12.32,0,0,1-1.61-.07A18,18,0,0,0,46,47.17l.63-.39h.11l.19-.07h.38l.2,0h.11ZM17,22.55a2,2,0,1,0-2-2A2,2,0,0,0,17,22.55Zm6,0a2,2,0,1,0-2-2A2,2,0,0,0,23,22.55Zm6,0a2,2,0,1,0-2-2A2,2,0,0,0,29,22.55Z"/>
    </g>
  </g>
</svg>
