<svg xmlns="http://www.w3.org/2000/svg" viewBox="0 0 512 422.05">
  <g id="Слой_2" data-name="Слой 2">
    <g id="Capa_1" data-name="Capa 1">
      <path d="M508.17,105.12a15,15,0,0,0-11.17-5H438.48V47.9a15,15,0,0,0-15-15H166V15A15,15,0,0,0,151,0H15A15,15,0,0,0,0,15L0,407a15,15,0,0,0,15,15.1H464.7a15,15,0,0,0,14.91-13.35l32.3-291.92A15,15,0,0,0,508.17,105.12ZM30,30H136V47.9a15,15,0,0,0,15,15H408.48v37.23H75a15,15,0,0,0-14.69,12L30,259.58ZM451.27,392.05H33.4L87.23,130.13h393Z"/>
    </g>
  </g>
</svg>
