<svg xmlns="http://www.w3.org/2000/svg" viewBox="0 0 80 80">
  <g id="Слой_2" data-name="Слой 2">
    <g id="Слой_1-2" data-name="Слой 1">
      <path d="M36.1,53.4a1,1,0,0,0,1-1V40.86a1,1,0,0,0-1-1H27.51a1,1,0,0,0-1,1V52.4a1,1,0,0,0,1,1ZM28.51,41.86H35.1V51.4H28.51Z"/>
      <path d="M43.9,53.4h8.59a1,1,0,0,0,1-1V40.86a1,1,0,0,0-1-1H43.9a1,1,0,0,0-1,1V52.4A1,1,0,0,0,43.9,53.4Zm1-11.54h6.59V51.4H44.9Z"/>
      <path d="M47.39,19H32.61a1,1,0,0,0-1,1v6.41a1,1,0,0,0,1,1H47.39a1,1,0,0,0,1-1V20A1,1,0,0,0,47.39,19Zm-1,6.41H33.61V21H46.39Z"/>
      <path d="M74.51,56H72a5.5,5.5,0,0,0-5.49,5.49v6.5A5.5,5.5,0,0,0,72,73.43h.26V78h-11V32.08a1,1,0,0,0-1-1H55.87V14.26a1,1,0,0,0-1-1h-9V1a1,1,0,0,0-1-1H35.16a1,1,0,0,0-1,1V13.26h-9a1,1,0,0,0-1,1V31.08H19.77a1,1,0,0,0-1,1V78h-11V73.43H8a5.5,5.5,0,0,0,5.49-5.49v-6.5A5.5,5.5,0,0,0,8,56H5.49A5.49,5.49,0,0,0,0,61.44v6.5a5.49,5.49,0,0,0,5.49,5.49h.25V78H1a1,1,0,0,0,0,2H79a1,1,0,0,0,0-2H74.26V73.43h.25A5.49,5.49,0,0,0,80,67.94v-6.5A5.49,5.49,0,0,0,74.51,56ZM2,67.94v-6.5A3.5,3.5,0,0,1,5.49,58H8a3.5,3.5,0,0,1,3.49,3.49v6.5A3.49,3.49,0,0,1,8,71.43H5.49A3.49,3.49,0,0,1,2,67.94ZM36.16,2h7.68V13.26H36.16Zm-10,13.26H53.87V31.08H26.13ZM20.77,33.08H59.23V78H47.64V59.51a1,1,0,0,0-1-1H33.36a1,1,0,0,0-1,1V78H20.77ZM45.64,78H34.36V60.51H45.64ZM78,67.94a3.49,3.49,0,0,1-3.49,3.49H72a3.49,3.49,0,0,1-3.49-3.49v-6.5A3.5,3.5,0,0,1,72,58h2.51A3.5,3.5,0,0,1,78,61.44Z"/>
    </g>
  </g>
</svg>
