<svg xmlns="http://www.w3.org/2000/svg" viewBox="0 0 537.93 435.26">
  <defs>
    <style>
      .cls-1 {
        fill: #010000;
      }

      .cls-1, .cls-2 {
        fill-rule: evenodd;
      }
    </style>
  </defs>
  <g id="Слой_2" data-name="Слой 2">
    <g id="Слой_1-2" data-name="Слой 1">
      <g>
        <path class="cls-1" d="M9.5,185.16,268.32,13.46,528.43,185.52a6.12,6.12,0,1,0,6.75-10.21L271.69,1a6.13,6.13,0,0,0-6.76,0L2.73,175a6.12,6.12,0,0,0,6.77,10.2Z"/>
        <path class="cls-1" d="M441.72,116.85l.78-63.08h25.39l-.7,87.89a6.12,6.12,0,0,0,12.24.1l.75-94.06a6.11,6.11,0,0,0-6.12-6.17H436.45a6.13,6.13,0,0,0-6.12,6l-.85,69.13a6.12,6.12,0,1,0,12.24.15Z"/>
        <path class="cls-1" d="M70.5,188.61,71,429.16a6.12,6.12,0,0,0,12.24,0l-.5-240.54a6.12,6.12,0,1,0-12.24,0Z"/>
        <path class="cls-2" d="M106.14,339.65v58.92a6.15,6.15,0,0,0,.35,2.06l.16,26.83a6.12,6.12,0,0,0,12.24-.08l-.14-22.72,48.07-.24c.27,2.59.92,5.65,2.5,7.47,2.61,3,6.36,3.29,9.43,3.29l12.13,0L424.79,415a6.11,6.11,0,0,0,6.11-6.26s-.44-20.14-1.38-63.39c-.28-12.81-7.39-25.08-17.28-34.1S390,296.63,379.51,296.43c-22.16-.45-129.17-.38-153.22-.37-2-5.85-7.21-9.87-13-9.87H180.5c-6.2,0-11.75,4.59-13.38,11.12a42.64,42.64,0,0,0-4.59-9.19c-11.9-18-37.35-20.85-37.35-20.85a4.6,4.6,0,0,0-5,3.49,81.61,81.61,0,0,0-2.17,14.06l-.18-30.9a6.12,6.12,0,0,0-12.24.06Zm72.75,59.49v1c0,1.37.42,2.84,1.61,2.84.17,0,.33,0,.5,0l34.39,0-.49-101.67c0-1.37-.44-2.85-1.61-2.85H180.5c-1.19,0-1.61,1.48-1.61,2.85v36.61a8.29,8.29,0,0,1,.06.87,8.1,8.1,0,0,1-.06.87V397.4a8.48,8.48,0,0,1,.06.87A8.29,8.29,0,0,1,178.89,399.14Zm48.74,3.79,190.9-.21c-.2-9-.61-27.69-1.25-57.14-.2-9.59-5.89-18.58-13.28-25.32s-16.78-11.43-24.73-11.6c-21.88-.44-126.5-.37-152.1-.36ZM118.41,345.18l.27,47.27,48-.26V344.91Zm-.3-51.18.22,38.91,27.58-.14c-9.79-3.92-16.93-10.16-21.57-18A48.09,48.09,0,0,1,118.11,294Zm10.16-16.92c6.57,1.4,19.54,5.42,26.6,16.1,8.29,12.54,6.25,27.27,4.68,33.94-13-2.33-22.15-8.31-27.3-17s-6.37-20.21-4-33Z"/>
      </g>
    </g>
  </g>
</svg>
