<svg xmlns="http://www.w3.org/2000/svg" viewBox="0 0 512 439.27">
  <g id="Слой_2" data-name="Слой 2">
    <g id="Capa_1" data-name="Capa 1">
      <g>
        <path d="M484.3,70.71H351.38v-43A27.73,27.73,0,0,0,323.68,0H188.32a27.74,27.74,0,0,0-27.71,27.7v43H27.7A27.74,27.74,0,0,0,0,98.42V411.56a27.74,27.74,0,0,0,27.7,27.71H484.3A27.74,27.74,0,0,0,512,411.56V205.64a7.5,7.5,0,0,0-15,0V375.78H479.68V134.2H497v36.4a7.5,7.5,0,1,0,15,0V98.42a27.74,27.74,0,0,0-27.7-27.71ZM451,391.94H427.15V279.64a7.49,7.49,0,0,0,7.07-7.48V237.82a7.49,7.49,0,0,0-7.07-7.48V118H451a27.89,27.89,0,0,0,13.63,13.63V378.31A27.89,27.89,0,0,0,451,391.94ZM39.83,328.21a7.49,7.49,0,0,0-7.5,7.5v40.07H15V134.2H32.33V300.66a7.5,7.5,0,0,0,15,0v-169A27.85,27.85,0,0,0,61,118H84.85v112.3a7.49,7.49,0,0,0-7.07,7.48v34.34a7.49,7.49,0,0,0,7.07,7.48v112.3H61a27.89,27.89,0,0,0-13.63-13.63V335.7a7.49,7.49,0,0,0-7.5-7.49Zm338-242.5V103H134.2V85.71Zm-285,179V245.32h33.49v19.34Zm41.42,15a7.49,7.49,0,0,0,7.07-7.48V237.82a7.49,7.49,0,0,0-7.07-7.48V118H377.8v112.3a7.49,7.49,0,0,0-7.07,7.48v34.34a7.49,7.49,0,0,0,7.07,7.48v112.3H134.2Zm251.53-15V245.32h33.49v19.34Zm26.42-34.34H392.8V85.71h19.35Zm-292.95,0H99.85V85.71H119.2ZM84.85,103H63.49V85.71H84.85ZM63.49,406.94H84.85v17.33H63.49ZM99.85,279.66H119.2V424.27H99.85ZM134.2,406.94H377.8v17.33H134.2ZM392.8,279.66h19.35V424.27H392.8Zm34.35,127.28h21.36v17.33H427.15ZM448.51,103H427.15V85.71h21.36ZM175.62,27.7A12.72,12.72,0,0,1,188.32,15H323.68a12.72,12.72,0,0,1,12.71,12.7v43H319.06V39.83a7.5,7.5,0,0,0-7.5-7.5H296.68a7.5,7.5,0,0,0,0,15h7.38V70.71H207.94V47.33h53.7a7.5,7.5,0,0,0,0-15h-61.2a7.5,7.5,0,0,0-7.5,7.5V70.71H175.62v-43ZM27.7,85.71H48.49V106.5a12.72,12.72,0,0,1-12.7,12.7H15V98.41A12.72,12.72,0,0,1,27.7,85.71ZM15,411.57V390.78H35.79a12.72,12.72,0,0,1,12.7,12.7v20.79H27.7A12.72,12.72,0,0,1,15,411.57Zm482,0a12.72,12.72,0,0,1-12.7,12.7H463.51V403.48a12.72,12.72,0,0,1,12.71-12.7H497ZM476.22,119.2a12.72,12.72,0,0,1-12.71-12.7V85.71H484.3A12.72,12.72,0,0,1,497,98.41V119.2Z"/>
        <path d="M296.41,143.44H215.59a7.5,7.5,0,0,0-7.5,7.5v40.41a7.5,7.5,0,0,0,7.5,7.5h80.82a7.5,7.5,0,0,0,7.5-7.5V150.94a7.5,7.5,0,0,0-7.5-7.5Zm-7.5,40.41H223.09V158.44h65.82Z"/>
      </g>
    </g>
  </g>
</svg>
