<svg xmlns="http://www.w3.org/2000/svg" viewBox="0 0 300 261.2">
  <g id="Слой_2" data-name="Слой 2">
    <g id="Layer_1" data-name="Layer 1">
      <path d="M5.3,125.24,74.42,151l26.76,86.05A8.13,8.13,0,0,0,114.1,241l38.54-31.41a11.5,11.5,0,0,1,14-.39l69.5,50.46a8.15,8.15,0,0,0,12.76-4.93L299.82,9.82A8.15,8.15,0,0,0,288.91.56L5.22,110A8.15,8.15,0,0,0,5.3,125.24Zm91.57,12.07L232,54.1a2.36,2.36,0,0,1,2.84,3.73L123.31,161.47a23.13,23.13,0,0,0-7.16,13.83l-3.8,28.14a3.49,3.49,0,0,1-6.82.5l-14.6-51.33A13.59,13.59,0,0,1,96.87,137.31Z"/>
    </g>
  </g>
</svg>
