<svg xmlns="http://www.w3.org/2000/svg" viewBox="0 0 88.25 75.46">
  <g id="Слой_2" data-name="Слой 2">
    <g id="Слой_1-2" data-name="Слой 1">
      <g>
        <path d="M33,64.38H3.25A3.26,3.26,0,0,1,0,61.13v-50A3.25,3.25,0,0,1,3.25,7.88h67a3.25,3.25,0,0,1,3.25,3.25v15H71v-15a.75.75,0,0,0-.75-.75h-67a.75.75,0,0,0-.75.75v50a.76.76,0,0,0,.75.75H33Z"/>
        <path d="M70.25,64.38H64v-2.5h6.25a.76.76,0,0,0,.75-.75V56.38h2.5v4.75A3.26,3.26,0,0,1,70.25,64.38Z"/>
        <path d="M80.84,67.4a1.15,1.15,0,0,1-.26,0,1.29,1.29,0,0,1-.91-.77L72.23,47.08a1.24,1.24,0,0,1,.28-1.33l6-6a1.26,1.26,0,0,1,2.09.53L86.7,61.14a1.22,1.22,0,0,1-.32,1.23L81.72,67A1.22,1.22,0,0,1,80.84,67.4ZM74.85,47,81.32,63.9l2.78-2.77L78.82,43Z"/>
        <path d="M66.11,40.6a1.42,1.42,0,0,1-.45-.08L46.15,33.07a1.25,1.25,0,0,1-.72-1.61,1.18,1.18,0,0,1,.28-.44l4.66-4.66A1.24,1.24,0,0,1,51.61,26l20.88,6.08a1.25,1.25,0,0,1,.85,1.55,1.35,1.35,0,0,1-.31.53l-6,6A1.22,1.22,0,0,1,66.11,40.6ZM48.84,31.42l17,6.47,4-4L51.62,28.65Z"/>
        <path d="M48.29,65.71a1.17,1.17,0,0,1-.45-.09L38.09,61.9a1.25,1.25,0,0,1-.73-1.61,1.21,1.21,0,0,1,.29-.44L43,54.5a1.27,1.27,0,0,1,1.23-.32l10.44,3a1.25,1.25,0,0,1,.86,1.55,1.2,1.2,0,0,1-.32.53l-6,6A1.3,1.3,0,0,1,48.29,65.71Zm-7.51-5.46L48,63l4-4-7.7-2.24Z"/>
        <path d="M52,75.46a1.15,1.15,0,0,1-.26,0,1.29,1.29,0,0,1-.91-.77L47.12,64.9a1.26,1.26,0,0,1,.28-1.33l6-6a1.24,1.24,0,0,1,1.76,0,1.26,1.26,0,0,1,.32.53l3,10.45a1.23,1.23,0,0,1-.32,1.23L52.9,75.1A1.29,1.29,0,0,1,52,75.46ZM49.74,64.77,52.49,72,56,68.51l-1.37-4.73h0l-.87-3Z"/>
        <path d="M55.78,64.68a1.25,1.25,0,0,1-1.2-.9l-1.27-4.35L49,58.17a1.25,1.25,0,0,1-.85-1.55,1.8,1.8,0,0,1,.08-.21,13.65,13.65,0,0,1,2-2.9L77.41,26.28c1.91-1.92,7.84-1.83,9.61-1.75a1.26,1.26,0,0,1,1.2,1.2c.07,1.77.16,7.69-1.76,9.61l-27.2,27.2a13.48,13.48,0,0,1-2.93,2A1.31,1.31,0,0,1,55.78,64.68Zm-4.56-8.46,3.45,1a1.25,1.25,0,0,1,.85.85l1,3.45a10.84,10.84,0,0,0,1-.79L84.69,33.57c.68-.68,1.06-3.73,1-6.57h0c-2.83,0-5.84.38-6.51,1.05L52,55.25h0A10.13,10.13,0,0,0,51.22,56.22Z"/>
        <path d="M54.32,59.67a1.25,1.25,0,0,1-1.25-1.25,1.22,1.22,0,0,1,.37-.88l4.84-4.84a1.25,1.25,0,0,1,1.77,0,1.27,1.27,0,0,1,0,1.77L55.2,59.31A1.25,1.25,0,0,1,54.32,59.67Z"/>
        <path d="M57.26,33.31A1.25,1.25,0,0,1,56,32.06a1.3,1.3,0,0,1,.37-.89L61,26.6a1.25,1.25,0,0,1,1.77,1.77l-4.57,4.57A1.26,1.26,0,0,1,57.26,33.31Z"/>
        <path d="M82,58.09A1.24,1.24,0,0,1,81.16,56l4.58-4.58a1.24,1.24,0,0,1,1.76.06,1.25,1.25,0,0,1,0,1.71l-4.57,4.57A1.26,1.26,0,0,1,82,58.09Z"/>
        <path d="M18.25,64.38H10a1.25,1.25,0,0,1-1.25-1.25v-54A1.24,1.24,0,0,1,10,7.88h8.25A1.24,1.24,0,0,1,19.5,9.13v54A1.25,1.25,0,0,1,18.25,64.38Zm-7-2.5H17V10.38H11.25Z"/>
        <path d="M51.22,9.13h-2.5c0-3.6-1.93-6.63-4.22-6.63H30.44c-2.29,0-4.22,3-4.22,6.63h-2.5C23.72,4,26.67,0,30.44,0H44.5C48.27,0,51.22,4,51.22,9.13Z"/>
        <path d="M9,71.88a4.26,4.26,0,0,1-4.25-4.25v-4.5A1.24,1.24,0,0,1,6,61.88h6a1.24,1.24,0,0,1,1.25,1.25v4.5A4.26,4.26,0,0,1,9,71.88Zm-1.75-7.5v3.25a1.75,1.75,0,0,0,3.5,0V64.38Z"/>
        <rect x="51.57" y="9.13" width="2.5" height="12"/>
        <rect x="60.59" y="9.13" width="2.5" height="12"/>
      </g>
    </g>
  </g>
</svg>
