<svg xmlns="http://www.w3.org/2000/svg" viewBox="0 0 85.21 73.42">
  <g id="Слой_2" data-name="Слой 2">
    <g id="Слой_1-2" data-name="Слой 1">
      <path d="M48.5,0A36.77,36.77,0,0,0,12.4,30.08C2.3,39-1.93,47.21.82,52.78c1.92,3.88,6.93,5.83,14.05,5.83,1.28,0,2.64-.08,4.05-.2A36.7,36.7,0,1,0,48.5,0ZM74.11,13.3A49.69,49.69,0,0,1,65.3,16c-2.17-5.79-5.23-10.34-8.82-13.09A34.68,34.68,0,0,1,74.11,13.3ZM49.43,2.05C55,2.6,60.09,8.16,63.28,16.44a82,82,0,0,1-13.85,1.29Zm-8.83.87C37,5.69,33.92,10.27,31.74,16A48.18,48.18,0,0,1,22.9,13.3,34.76,34.76,0,0,1,40.6,2.92Zm6.83-.86V17.72a80.88,80.88,0,0,1-13.76-1.29C36.8,8.22,41.77,2.69,47.43,2.06ZM13.84,35a34.56,34.56,0,0,1,7.69-20.07,49.74,49.74,0,0,0,9.54,3.05,59.93,59.93,0,0,0-2.84,17ZM30.65,54.19a73.35,73.35,0,0,1-10.8,2.09A34.54,34.54,0,0,1,13.8,37H28.21A61.85,61.85,0,0,0,30.65,54.19Zm-28-2.3C.52,47.64,4.09,40.6,12,33.19c-.11,1.16-.18,2.33-.18,3.52a36.51,36.51,0,0,0,5.8,19.76C9.88,57,4.37,55.45,2.61,51.89Zm18.63,6.26a78.37,78.37,0,0,0,10-2c2.18,6.35,5.41,11.41,9.27,14.38A34.71,34.71,0,0,1,21.24,58.15ZM49.43,71.39v-8.1a4,4,0,0,1-1.3,1.1l-.7.37v6.59c-5.91-.68-11.11-6.87-14.21-15.81,1.08-.31,2.17-.65,3.29-1l.44.84a1,1,0,0,0,.88.54l.25,0,2.43-.62L44.07,62a1,1,0,0,0,1.36.41l1.3-.68a1,1,0,0,0,.54-.88l0-7.34a12.44,12.44,0,0,0,2.35-1l3-1.57L56,67a1,1,0,0,0,.56.69.9.9,0,0,0,.42.1,1,1,0,0,0,.47-.12l4.06-2.13a1,1,0,0,0,.53-.77l2.41-20L68,42.92a11,11,0,0,0,3.62-3.56c.85-1.28,1.73-3,1.12-4.21s-2.58-1.47-4.1-1.47a11.93,11.93,0,0,0-5.15,1.06l-3.37,1.77L42.28,27.18a1,1,0,0,0-.93,0l-4.06,2.14a1,1,0,0,0-.52.72,1,1,0,0,0,.26.85L48.28,42.74l-3,1.57a12,12,0,0,0-2.14,1.42l-6-4.07a1,1,0,0,0-1-.06l-1.31.68a1,1,0,0,0-.42,1.36l3.51,6.68L36,52a1,1,0,0,0-.32.71c-1.05.34-2.08.66-3.1,1A59.27,59.27,0,0,1,30.21,37h8.45l-1.9-2H30.23A58.65,58.65,0,0,1,33,18.34a83.42,83.42,0,0,0,14.44,1.39v6.76l2,1v-7.8A82.65,82.65,0,0,0,64,18.34a55.91,55.91,0,0,1,2.55,12.48,19,19,0,0,1,2-.14A57.93,57.93,0,0,0,66,17.93a49.92,49.92,0,0,0,9.51-3A34.47,34.47,0,0,1,83.17,35H75.82a5.35,5.35,0,0,1,.05,2h7.34A34.61,34.61,0,0,1,75,59.13a51.91,51.91,0,0,0-8.88-2.79l-.24,2a51.52,51.52,0,0,1,7.7,2.37A34.58,34.58,0,0,1,49.43,71.39Zm.69-29.62L39.39,30.47l2.43-1.28L58,37.64Zm14.3-5.27a10.24,10.24,0,0,1,4.22-.82,4.79,4.79,0,0,1,2.31.39c0,.91-2,4.06-3.88,5.07l-4,2.11h0l-10.2,5.37h0L48.72,50.8a9.93,9.93,0,0,1-2.38.91l-7.69,1.95-.35-1,5.84-5.13a9.6,9.6,0,0,1,2.09-1.44Zm-2.11,9.41L60.13,64,57.7,65.28,54.47,50ZM45.3,54l0,6-2.76-5.24ZM39.46,49l-2.71-5.17,4.84,3.3Z"/>
    </g>
  </g>
</svg>
