<svg xmlns="http://www.w3.org/2000/svg" viewBox="0 0 512.01 362.67">
  <g id="Слой_2" data-name="Слой 2">
    <g id="Bold">
      <path d="M500.68,51.82l.64,4.18A64.93,64.93,0,0,0,457.2,10.94l-.45-.1C416.84,0,256.22,0,256.22,0S96-.21,55.69,10.84A64.92,64.92,0,0,0,11.25,55.55l-.11.45c-14.91,77.89-15,171.48.66,254.87l-.66-4.22A64.9,64.9,0,0,0,55.26,351.7l.45.11c39.87,10.86,200.53,10.86,200.53,10.86s160.19,0,200.53-10.86a64.91,64.91,0,0,0,44.46-44.72l.11-.44c6.78-36.23,10.67-77.91,10.67-120.5,0-1.55,0-3.13,0-4.71s0-3.18,0-4.91A688.61,688.61,0,0,0,500.68,51.82ZM205,259.22V103.64l133.67,77.91Z"/>
    </g>
  </g>
</svg>
